<?xml version="1.0" encoding="UTF-8" standalone="no"?>
<svg width="40px" height="42px" viewBox="0 0 40 42" version="1.1" xmlns="http://www.w3.org/2000/svg" xmlns:xlink="http://www.w3.org/1999/xlink">
    <!-- Generator: Sketch 3.8.3 (29802) - http://www.bohemiancoding.com/sketch -->
    <title>resistance</title>
    <desc>Created with Sketch.</desc>
    <defs></defs>
    <g id="Page-1" stroke="none" stroke-width="1" fill="none" fill-rule="evenodd">
        <g id="Desktop" transform="translate(-492.000000, -1452.000000)" fill="#FFFFFF">
            <g id="resistance" transform="translate(492.000000, 1452.000000)">
                <g id="Group">
                    <path d="M30.90607,5.35721257 C31.2206226,5.75345656 34.8804669,11.0301627 34.8804669,15.4138447 C34.8804669,19.994329 31.4560311,25.2454935 27.5650584,25.2454935 C23.6740856,25.2454935 22.3511284,21.1308133 22.3511284,18.3360665 C22.3511284,15.5412421 22.6508949,12.3306876 27.2869261,9.20032902 L25.3105058,6.71821442 C24.6707393,6.71844732 21.8427237,10.3759409 21.8427237,10.3759409 C21.8427237,10.3759409 21.9205447,7.27042514 23.710428,4.70850277 L19.9610895,0 L16.211751,4.70858041 C18.0016342,7.27042514 18.0794553,10.3759409 18.0794553,10.3759409 C18.0794553,10.3759409 15.2512062,6.71821442 14.6115953,6.71821442 L12.6352529,9.20032902 C17.2713619,12.33061 17.5710506,15.5412421 17.5710506,18.3360665 C17.5710506,21.1308133 16.2480934,25.2454935 12.3571206,25.2454935 C8.46614786,25.2454935 5.04194553,19.994329 5.04194553,15.4138447 C5.04194553,11.0299298 8.7018677,5.75322366 9.01618677,5.35721257 C3.58607004,8.91603327 0,15.0452384 0,22.0109501 C0,33.0087394 8.93680934,41.9240739 19.9610895,41.9240739 C30.9852918,41.9240739 39.9226459,33.0087394 39.9226459,22.0109501 C39.9226459,15.0452384 36.3365759,8.91603327 30.90607,5.35721257 L30.90607,5.35721257 Z" id="Shape"></path>
                </g>
            </g>
        </g>
    </g>
</svg>